<?xml version="1.0" standalone="no"?>
<!DOCTYPE svg PUBLIC "-//W3C//DTD SVG 20010904//EN"
 "http://www.w3.org/TR/2001/REC-SVG-20010904/DTD/svg10.dtd">
<svg version="1.0" xmlns="http://www.w3.org/2000/svg"
 width="1600.000000pt" height="1600.000000pt" viewBox="0 0 1600.000000 1600.000000"
 preserveAspectRatio="xMidYMid meet">
<metadata>
Created by potrace 1.11, written by Peter Selinger 2001-2013
</metadata>
<g transform="translate(0.000000,1600.000000) scale(0.100000,-0.100000)"
fill="#000000" stroke="none">
<path d="M7545 15980 c-38 -5 -158 -16 -265 -25 -1329 -112 -2645 -580 -3767
-1341 -1283 -870 -2299 -2109 -2895 -3529 -152 -364 -254 -668 -388 -1165 -39
-141 -117 -549 -149 -775 -62 -435 -76 -646 -75 -1160 0 -469 10 -642 54 -992
141 -1107 494 -2131 1068 -3098 70 -118 207 -334 257 -402 16 -24 46 -66 65
-94 47 -68 253 -342 304 -404 23 -27 48 -58 56 -69 232 -295 730 -796 1075
-1082 924 -765 1985 -1307 3130 -1597 395 -101 749 -163 1195 -211 445 -48
1186 -46 1625 5 855 99 1561 282 2295 594 1840 784 3335 2246 4160 4069 911
2016 943 4328 88 6376 -269 643 -642 1278 -1081 1839 -348 445 -856 959 -1300
1314 -1230 984 -2735 1590 -4277 1722 -102 8 -235 20 -296 25 -128 12 -776 11
-879 0z m790 -1460 c1573 -83 3086 -752 4214 -1864 845 -833 1428 -1821 1737
-2945 158 -576 234 -1141 234 -1751 0 -859 -149 -1639 -466 -2445 -87 -219
-305 -666 -424 -870 -835 -1420 -2139 -2463 -3700 -2957 -633 -200 -1278 -298
-1965 -298 -916 0 -1760 174 -2599 534 -1404 604 -2573 1710 -3260 3084 -372
745 -586 1495 -671 2362 -22 219 -30 713 -16 950 69 1172 429 2276 1056 3230
1125 1715 2933 2793 4965 2960 255 21 613 25 895 10z"/>
<path d="M5053 10753 c-40 -2 -73 -8 -73 -13 0 -4 -15 -11 -32 -15 -29 -6 -85
-28 -143 -58 -11 -6 -34 -18 -52 -26 -56 -28 -195 -144 -246 -206 -27 -33 -53
-62 -57 -65 -16 -10 -110 -199 -110 -220 0 -11 -7 -23 -15 -26 -13 -5 -15 -44
-15 -261 0 -162 4 -252 10 -248 5 3 12 -7 16 -22 10 -40 52 -129 92 -193 41
-65 197 -223 262 -266 58 -38 206 -110 245 -119 17 -4 56 -16 87 -26 56 -18
147 -19 2893 -19 2746 0 2837 1 2893 19 31 10 71 22 87 25 50 12 167 68 235
113 90 61 239 210 275 275 57 104 84 160 90 187 4 17 10 29 14 26 12 -7 21
240 14 385 -3 71 -10 127 -14 124 -5 -3 -12 8 -15 23 -14 55 -75 171 -126 238
-45 59 -174 182 -228 217 -96 62 -199 112 -253 122 -21 4 -35 11 -33 15 3 4
-45 11 -107 14 -112 7 -5558 6 -5694 0z"/>
<path d="M5085 7179 c-33 -4 -78 -14 -100 -23 -22 -8 -47 -15 -55 -16 -13 0
-61 -21 -125 -53 -11 -6 -34 -18 -52 -26 -56 -28 -195 -144 -246 -206 -27 -33
-53 -62 -57 -65 -16 -10 -110 -199 -110 -220 0 -11 -7 -23 -15 -26 -13 -5 -15
-44 -15 -261 0 -162 4 -252 10 -248 5 3 12 -7 16 -22 10 -40 52 -129 92 -193
59 -93 281 -300 321 -300 5 0 19 -8 32 -18 28 -21 152 -72 175 -72 8 0 22 -7
30 -15 14 -13 352 -15 2929 -15 1602 0 2920 3 2929 6 9 3 13 10 10 15 -3 5 7
9 21 9 37 0 174 63 255 117 90 61 239 210 275 275 57 104 84 160 90 187 4 17
10 29 14 26 12 -7 21 240 14 385 -3 71 -10 127 -14 124 -5 -3 -12 8 -15 23 -9
33 -51 124 -82 173 -34 56 -71 100 -147 175 -61 62 -92 85 -200 153 -11 7 -31
17 -45 23 -14 6 -42 19 -62 30 -20 10 -44 19 -53 19 -8 0 -41 10 -73 23 l-57
22 -2815 1 c-1548 1 -2842 -2 -2875 -7z"/>
</g>
</svg>
